<mxfile host="65bd71144e">
    <diagram id="gd3hIsuXhY9H0Jxk0yMg" name="Page-1">
        <mxGraphModel dx="570" dy="2078" grid="1" gridSize="10" guides="1" tooltips="1" connect="1" arrows="1" fold="1" page="1" pageScale="1" pageWidth="827" pageHeight="1169" math="0" shadow="0">
            <root>
                <mxCell id="0"/>
                <mxCell id="1" parent="0"/>
                <mxCell id="634" value="" style="edgeStyle=none;html=1;" edge="1" parent="1" source="598" target="633">
                    <mxGeometry relative="1" as="geometry"/>
                </mxCell>
                <mxCell id="598" value="" style="rounded=1;arcSize=10;dashed=1;strokeColor=#F59D56;fillColor=none;gradientColor=none;dashPattern=8 4;strokeWidth=2;fontStyle=1" parent="1" vertex="1">
                    <mxGeometry x="910" y="-19.5" width="460" height="389.5" as="geometry"/>
                </mxCell>
                <mxCell id="106" value="" style="edgeStyle=entityRelationEdgeStyle;html=1;exitX=1.004;exitY=0.283;exitDx=0;exitDy=0;exitPerimeter=0;" parent="1" source="16" target="105" edge="1">
                    <mxGeometry relative="1" as="geometry"/>
                </mxCell>
                <mxCell id="638" value="" style="edgeStyle=none;html=1;exitX=0.994;exitY=0.284;exitDx=0;exitDy=0;exitPerimeter=0;" edge="1" parent="1" source="16" target="637">
                    <mxGeometry relative="1" as="geometry"/>
                </mxCell>
                <mxCell id="16" value="&lt;span style=&quot;font-size: 20px;&quot;&gt;&lt;b&gt;第1章&lt;/b&gt;&lt;/span&gt;&lt;br style=&quot;font-size: 14px&quot;&gt;作者应该是结合自身的职业发展经历介绍近20年的js发展&lt;br&gt;&lt;br&gt;&lt;b style=&quot;font-size: 20px;&quot;&gt;第2章&lt;br&gt;&lt;/b&gt;应该是介绍js里的一些语法，声明、语句、模块&lt;br&gt;&lt;b style=&quot;font-size: 20px;&quot;&gt;&lt;br&gt;&lt;/b&gt;&lt;b style=&quot;font-size: 20px;&quot;&gt;第3章&lt;/b&gt;&lt;b style=&quot;font-size: 20px;&quot;&gt;&lt;br&gt;&lt;/b&gt;可能是介绍如何使用js写面向对象的代码&lt;br&gt;&lt;b style=&quot;font-size: 20px;&quot;&gt;&lt;br&gt;&lt;/b&gt;&lt;b style=&quot;font-size: 20px;&quot;&gt;第4章&lt;br&gt;&lt;/b&gt;js语言的结构化？不太懂什么意思&lt;br&gt;&lt;b style=&quot;font-size: 20px;&quot;&gt;&lt;br&gt;&lt;/b&gt;&lt;b style=&quot;font-size: 20px;&quot;&gt;第5章&lt;br&gt;&lt;/b&gt;可能是介绍js的函数式编程&lt;br&gt;&lt;b style=&quot;font-size: 20px;&quot;&gt;&lt;br&gt;&lt;/b&gt;&lt;b style=&quot;font-size: 20px;&quot;&gt;第6章&lt;br&gt;&lt;/b&gt;介绍js作为动态语言的一些特点&lt;br&gt;&lt;b style=&quot;font-size: 20px;&quot;&gt;&lt;br&gt;第7章&lt;br&gt;&lt;/b&gt;介绍js如何如能否并行或者介绍异步开发？&lt;b style=&quot;font-size: 20px;&quot;&gt;&lt;br&gt;&lt;/b&gt;" style="html=1;shadow=0;dashed=0;shape=mxgraph.bootstrap.rrect;rSize=5;strokeColor=#1CA5B8;html=1;whiteSpace=wrap;fillColor=#ffffff;fontColor=#1CA5B8;verticalAlign=bottom;align=left;spacing=20;spacingBottom=0;fontSize=14;rounded=1;" parent="1" vertex="1">
                    <mxGeometry x="30" y="50" width="250" height="580" as="geometry"/>
                </mxCell>
                <mxCell id="17" value="目录阅读" style="html=1;shadow=0;dashed=0;shape=mxgraph.bootstrap.topButton;rSize=5;perimeter=none;whiteSpace=wrap;fillColor=#F7F7F7;strokeColor=#1CA5B8;fontColor=#6C767D;resizeWidth=1;fontSize=18;align=left;spacing=20;rounded=1;" parent="16" vertex="1">
                    <mxGeometry width="250" height="50" relative="1" as="geometry"/>
                </mxCell>
                <mxCell id="103" value="" style="shape=singleArrow;whiteSpace=wrap;html=1;shadow=0;" parent="1" vertex="1">
                    <mxGeometry x="280" y="110" width="100" height="60" as="geometry"/>
                </mxCell>
                <mxCell id="104" value="应用环境&lt;br&gt;宿主环境&lt;br&gt;运行期环境&lt;br&gt;这里不太理解" style="rounded=1;whiteSpace=wrap;html=1;shadow=0;" parent="1" vertex="1">
                    <mxGeometry x="400" y="110" width="120" height="60" as="geometry"/>
                </mxCell>
                <mxCell id="108" value="" style="edgeStyle=entityRelationEdgeStyle;html=1;" parent="1" source="105" target="107" edge="1">
                    <mxGeometry relative="1" as="geometry"/>
                </mxCell>
                <mxCell id="110" value="" style="edgeStyle=entityRelationEdgeStyle;html=1;" parent="1" source="105" target="109" edge="1">
                    <mxGeometry relative="1" as="geometry"/>
                </mxCell>
                <mxCell id="105" value="声明：约定数据的生命周期和逻辑的作用域" style="whiteSpace=wrap;html=1;fontSize=14;align=left;verticalAlign=bottom;fillColor=#ffffff;strokeColor=#1CA5B8;fontColor=#1CA5B8;shadow=0;dashed=0;spacing=20;spacingBottom=0;rounded=1;" parent="1" vertex="1">
                    <mxGeometry x="410" y="200" width="190" height="70" as="geometry"/>
                </mxCell>
                <mxCell id="118" value="" style="edgeStyle=none;html=1;" parent="1" source="107" edge="1">
                    <mxGeometry relative="1" as="geometry">
                        <mxPoint x="910" y="120" as="targetPoint"/>
                    </mxGeometry>
                </mxCell>
                <mxCell id="107" value="数据：变量和类型声明" style="ellipse;whiteSpace=wrap;html=1;fontSize=14;align=left;verticalAlign=bottom;fillColor=#ffffff;strokeColor=#1CA5B8;fontColor=#1CA5B8;shadow=0;dashed=0;spacing=20;spacingBottom=0;rounded=1;" parent="1" vertex="1">
                    <mxGeometry x="670" y="80" width="130" height="80" as="geometry"/>
                </mxCell>
                <mxCell id="109" value="逻辑：语句（包含流程控制语句）" style="whiteSpace=wrap;html=1;fontSize=14;align=left;verticalAlign=bottom;fillColor=#ffffff;strokeColor=#1CA5B8;fontColor=#1CA5B8;shadow=0;dashed=0;spacing=20;spacingBottom=0;rounded=1;" parent="1" vertex="1">
                    <mxGeometry x="670" y="370" width="170" height="60" as="geometry"/>
                </mxCell>
                <mxCell id="116" value="二者关系：表达式" style="shape=doubleArrow;direction=south;whiteSpace=wrap;html=1;shadow=0;" parent="1" vertex="1">
                    <mxGeometry x="685" y="170" width="100" height="190" as="geometry"/>
                </mxCell>
                <mxCell id="587" value="var声明的变量，其作用域为当前函数、模块或全局&lt;br&gt;let声明的变量，其作用域总是在当前代码块" style="shape=rect;rounded=1;whiteSpace=wrap;html=1;shadow=0;strokeColor=none;fillColor=#64BBE2;arcSize=30;fontSize=14;spacingLeft=42;fontStyle=1;fontColor=#FFFFFF;align=left;" parent="1" vertex="1">
                    <mxGeometry x="960" y="10" width="380" height="75" as="geometry"/>
                </mxCell>
                <mxCell id="588" value="1" style="shape=ellipse;perimeter=ellipsePerimeter;fontSize=22;fontStyle=1;shadow=0;strokeColor=#ffffff;fillColor=#10739E;strokeWidth=4;fontColor=#ffffff;align=center;" parent="1" vertex="1">
                    <mxGeometry x="920" y="17.5" width="60" height="60" as="geometry"/>
                </mxCell>
                <mxCell id="589" value="同一个代码块中，var可以多次声明变量名&lt;br&gt;let只能声明一次" style="shape=rect;rounded=1;whiteSpace=wrap;html=1;shadow=0;strokeColor=none;fillColor=#F8C382;arcSize=30;fontSize=14;spacingLeft=42;fontStyle=1;fontColor=#FFFFFF;align=left;" parent="1" vertex="1">
                    <mxGeometry x="950" y="110" width="390" height="40" as="geometry"/>
                </mxCell>
                <mxCell id="590" value="2" style="shape=ellipse;perimeter=ellipsePerimeter;fontSize=22;fontStyle=1;shadow=0;strokeColor=#ffffff;fillColor=#F2931E;strokeWidth=4;fontColor=#ffffff;align=center;" parent="1" vertex="1">
                    <mxGeometry x="920" y="100" width="60" height="60" as="geometry"/>
                </mxCell>
                <mxCell id="591" value="可以在var声明前使用变量，值为undefined&lt;br&gt;let必须先声明后使用" style="shape=rect;rounded=1;whiteSpace=wrap;html=1;shadow=0;strokeColor=none;fillColor=#F08E81;arcSize=30;fontSize=14;spacingLeft=42;fontStyle=1;fontColor=#FFFFFF;align=left;" parent="1" vertex="1">
                    <mxGeometry x="950" y="190" width="390" height="40" as="geometry"/>
                </mxCell>
                <mxCell id="592" value="3" style="shape=ellipse;perimeter=ellipsePerimeter;fontSize=22;fontStyle=1;shadow=0;strokeColor=#ffffff;fillColor=#AE4132;strokeWidth=4;fontColor=#ffffff;align=center;" parent="1" vertex="1">
                    <mxGeometry x="920" y="180" width="60" height="60" as="geometry"/>
                </mxCell>
                <mxCell id="599" value="var和let的4点不同" style="html=1;shadow=0;dashed=0;shape=mxgraph.bootstrap.rrect;rSize=5;strokeColor=none;strokeWidth=1;fillColor=#FFBC26;fontColor=#000000;whiteSpace=wrap;align=left;verticalAlign=middle;spacingLeft=0;fontStyle=1;fontSize=14;spacing=5;" parent="1" vertex="1">
                    <mxGeometry x="930" y="-30" width="130" height="20" as="geometry"/>
                </mxCell>
                <mxCell id="612" value="var声明全局，相当全局对象global上声明了一个属性&lt;br&gt;let声明为全局作用域标识符，不是global上的属性" style="shape=rect;rounded=1;whiteSpace=wrap;html=1;shadow=0;strokeColor=none;fillColor=#5D7F99;arcSize=30;fontSize=14;spacingLeft=42;fontStyle=1;fontColor=#FFFFFF;align=left;" parent="1" vertex="1">
                    <mxGeometry x="950" y="255" width="390" height="70" as="geometry"/>
                </mxCell>
                <mxCell id="613" value="4" style="shape=ellipse;perimeter=ellipsePerimeter;fontSize=22;fontStyle=1;shadow=0;strokeColor=#ffffff;fillColor=#23445D;strokeWidth=4;fontColor=#ffffff;align=center;" parent="1" vertex="1">
                    <mxGeometry x="920" y="260" width="60" height="60" as="geometry"/>
                </mxCell>
                <mxCell id="614" value="转义字符\位于一行的末尾&lt;br&gt;其后立即是代码文本中的换行时&lt;br&gt;用于表示连续的字符串声明&lt;br&gt;" style="ellipse;whiteSpace=wrap;html=1;" vertex="1" parent="1">
                    <mxGeometry x="850" y="-200" width="210" height="140" as="geometry"/>
                </mxCell>
                <mxCell id="628" value="" style="aspect=fixed;html=1;points=[];align=center;image;fontSize=12;image=img/lib/azure2/general/Folder_Blank.svg;" vertex="1" parent="1">
                    <mxGeometry x="888" y="-280" width="134" height="108.75" as="geometry"/>
                </mxCell>
                <mxCell id="629" value="&lt;span style=&quot;color: rgb(255, 255, 255); font-size: 14px; text-align: left;&quot;&gt;./笔记1示例代码.js&lt;/span&gt;" style="text;html=1;strokeColor=none;fillColor=none;align=center;verticalAlign=middle;whiteSpace=wrap;rounded=0;fontStyle=1;spacing=3;" vertex="1" parent="1">
                    <mxGeometry x="895" y="-230" width="120" height="30" as="geometry"/>
                </mxCell>
                <mxCell id="633" value="数值字面量&lt;br&gt;16进制：以0x或0X开始&lt;br&gt;8进制：以0o或0O开始&lt;br&gt;2进制：以0b或0B开始&lt;br&gt;其他情况：10进制" style="ellipse;whiteSpace=wrap;html=1;fillColor=none;strokeColor=#F59D56;rounded=1;arcSize=10;dashed=1;gradientColor=none;dashPattern=8 4;strokeWidth=2;fontStyle=1;" vertex="1" parent="1">
                    <mxGeometry x="1100" y="-500" width="350" height="340" as="geometry"/>
                </mxCell>
                <mxCell id="637" value="第2章基本上是一些语法基础，已经用js很多了，这部分先略了" style="whiteSpace=wrap;html=1;fontSize=14;align=left;verticalAlign=bottom;fillColor=#ffffff;strokeColor=#1CA5B8;fontColor=#1CA5B8;shadow=0;dashed=0;spacing=20;spacingBottom=0;rounded=1;" vertex="1" parent="1">
                    <mxGeometry x="400" y="350" width="195" height="90" as="geometry"/>
                </mxCell>
                <mxCell id="842" value="" style="edgeStyle=none;html=1;" edge="1" parent="1" source="840" target="841">
                    <mxGeometry relative="1" as="geometry"/>
                </mxCell>
                <mxCell id="840" value="值相等比较 ==&lt;br&gt;同值类型，比数据等值&lt;br&gt;同引用，比引用地址&lt;br&gt;一值一引用，引用转值，再比数据值&lt;br&gt;&lt;span style=&quot;background-color: rgb(255, 0, 0);&quot;&gt;等值检测中有任何一个数据是符号时，该符号无需进行&lt;br&gt;任何数据转换，因为它总是不等值于任何其他数据&lt;/span&gt;" style="ellipse;shape=doubleEllipse;whiteSpace=wrap;html=1;" vertex="1" parent="1">
                    <mxGeometry x="874" y="490" width="366.32" height="180" as="geometry"/>
                </mxCell>
                <mxCell id="838" value="" style="aspect=fixed;html=1;points=[];align=center;image;fontSize=12;image=img/lib/azure2/ai_machine_learning/Batch_AI.svg;" vertex="1" parent="1">
                    <mxGeometry x="1035.9799999999998" y="470" width="42.35" height="60" as="geometry"/>
                </mxCell>
                <mxCell id="852" value="" style="edgeStyle=none;html=1;fontSize=48;" edge="1" parent="1" source="841">
                    <mxGeometry relative="1" as="geometry">
                        <mxPoint x="1070.5841584158418" y="985" as="targetPoint"/>
                    </mxGeometry>
                </mxCell>
                <mxCell id="841" value="1.有任何一个是数字，另一个转换为数字&lt;br&gt;2.如果有任何一个是布尔值，布尔值的转换为数字，则1&lt;br&gt;3.如果任何一个是对象或函数，调用该对象的valueOf将其转换为&lt;br&gt;值数据，多数情况下该值数据作为数字值处理&lt;br&gt;4.特定规则，undefined与null总是相等" style="ellipse;shape=doubleEllipse;whiteSpace=wrap;html=1;" vertex="1" parent="1">
                    <mxGeometry x="874.0000000000001" y="720" width="366.32" height="150" as="geometry"/>
                </mxCell>
                <mxCell id="843" value="如果比较的2个值类型不同" style="html=1;shadow=0;dashed=0;shape=mxgraph.bootstrap.rrect;rSize=5;strokeColor=none;strokeWidth=1;fillColor=#FFBC26;fontColor=#000000;whiteSpace=wrap;align=left;verticalAlign=middle;spacingLeft=0;fontStyle=1;fontSize=14;spacing=5;" vertex="1" parent="1">
                    <mxGeometry x="968.74" y="730" width="176.85" height="20" as="geometry"/>
                </mxCell>
                <mxCell id="844" value="为什么尽量数字值比较&lt;br&gt;因为字符串比较开销大&lt;br&gt;每一个字符都要比较" style="whiteSpace=wrap;html=1;shape=mxgraph.basic.cloud_callout" vertex="1" parent="1">
                    <mxGeometry x="1200" y="630" width="190" height="130" as="geometry"/>
                </mxCell>
                <mxCell id="845" value="严格相等比较 ===&lt;br&gt;值类型与引用类型，必然不严格相等&lt;br&gt;2个值类型，数据类型不同，必然不严格相等，否则按“值相等”比较&lt;br&gt;2个引用类型，比较引用地址" style="ellipse;shape=doubleEllipse;whiteSpace=wrap;html=1;" vertex="1" parent="1">
                    <mxGeometry x="1340" y="480" width="366.32" height="150" as="geometry"/>
                </mxCell>
                <mxCell id="846" value="" style="aspect=fixed;html=1;points=[];align=center;image;fontSize=12;image=img/lib/azure2/ai_machine_learning/Batch_AI.svg;" vertex="1" parent="1">
                    <mxGeometry x="1501.9899999999998" y="450" width="42.35" height="60" as="geometry"/>
                </mxCell>
                <mxCell id="847" value="" style="shape=doubleArrow;whiteSpace=wrap;html=1;" vertex="1" parent="1">
                    <mxGeometry x="1240" y="530" width="100" height="60" as="geometry"/>
                </mxCell>
                <mxCell id="849" value="&lt;font style=&quot;font-size: 48px;&quot;&gt;&lt;span style=&quot;background-color: initial;&quot;&gt;🤔&lt;/span&gt;&lt;span style=&quot;background-color: initial;&quot;&gt;❓&lt;/span&gt;&lt;/font&gt;" style="text;whiteSpace=wrap;html=1;" vertex="1" parent="1">
                    <mxGeometry x="1180" y="705" width="100" height="70" as="geometry"/>
                </mxCell>
                <mxCell id="853" value="特例" style="html=1;shadow=0;dashed=0;shape=mxgraph.bootstrap.rrect;rSize=5;strokeColor=none;strokeWidth=1;fillColor=#DB2843;fontColor=#FFFFFF;whiteSpace=wrap;align=left;verticalAlign=middle;spacingLeft=0;fontStyle=1;fontSize=14;spacing=5;" vertex="1" parent="1">
                    <mxGeometry x="1027" y="985" width="60" height="20" as="geometry"/>
                </mxCell>
                <mxCell id="856" value="&lt;span style=&quot;color: rgb(240, 240, 240); font-size: 12px; text-align: center;&quot;&gt;1.NaN不等于自身&lt;/span&gt;&lt;br style=&quot;color: rgb(240, 240, 240); font-size: 12px; text-align: center;&quot;&gt;&lt;span style=&quot;color: rgb(240, 240, 240); font-size: 12px; text-align: center;&quot;&gt;2.符号可以转为true，但不等值true&lt;/span&gt;&lt;br style=&quot;color: rgb(240, 240, 240); font-size: 12px; text-align: center;&quot;&gt;&lt;span style=&quot;color: rgb(240, 240, 240); font-size: 12px; text-align: center;&quot;&gt;3.即使字面量相同的引用类型，也是不严格相等&lt;/span&gt;" style="shape=step;perimeter=stepPerimeter;whiteSpace=wrap;html=1;fixedSize=1;fontSize=14;align=left;verticalAlign=bottom;fillColor=#DB2843;strokeColor=#BA2239;fontColor=#ffffff;shadow=0;dashed=0;spacing=20;spacingBottom=0;" vertex="1" parent="1">
                    <mxGeometry x="930" y="1005" width="285" height="110" as="geometry"/>
                </mxCell>
                <mxCell id="858" value="" style="aspect=fixed;html=1;points=[];align=center;image;fontSize=12;image=img/lib/azure2/general/Folder_Blank.svg;" vertex="1" parent="1">
                    <mxGeometry x="893" y="896.25" width="134" height="108.75" as="geometry"/>
                </mxCell>
                <mxCell id="859" value="&lt;span style=&quot;color: rgb(255, 255, 255); font-size: 14px; text-align: left;&quot;&gt;./笔记1示例代码.js&lt;/span&gt;" style="text;html=1;strokeColor=none;fillColor=none;align=center;verticalAlign=middle;whiteSpace=wrap;rounded=0;fontStyle=1;spacing=3;" vertex="1" parent="1">
                    <mxGeometry x="900" y="946.25" width="120" height="30" as="geometry"/>
                </mxCell>
            </root>
        </mxGraphModel>
    </diagram>
</mxfile>
